<?xml version="1.0" standalone="no"?>
<!DOCTYPE svg PUBLIC "-//W3C//DTD SVG 20010904//EN"
 "http://www.w3.org/TR/2001/REC-SVG-20010904/DTD/svg10.dtd">
<svg version="1.0" xmlns="http://www.w3.org/2000/svg"
 width="225.000000pt" height="225.000000pt" viewBox="0 0 225.000000 225.000000"
 preserveAspectRatio="xMidYMid meet">

<g transform="translate(0.000000,225.000000) scale(0.100000,-0.100000)"
fill="#D9E2FF" stroke="none">
<path d="M919 2142 c13 -9 39 -31 57 -48 l34 -32 0 -205 c0 -115 -4 -208 -9
-212 -5 -3 -87 -16 -183 -30 -95 -13 -216 -31 -268 -39 -179 -30 -253 -21
-332 37 -15 11 -31 18 -34 14 -10 -10 18 -47 90 -122 l64 -68 48 6 c27 3 148
26 269 52 121 25 228 44 238 43 16 -3 11 -14 -33 -83 -199 -305 -466 -607
-708 -798 -119 -95 -114 -113 11 -41 264 152 461 335 752 702 44 55 83 101 88
101 4 1 6 -140 5 -311 l-3 -313 -155 -27 c-85 -15 -166 -25 -180 -22 -14 3
-42 17 -63 30 -22 14 -41 23 -45 20 -16 -17 57 -111 112 -145 l32 -20 118 29
c65 16 133 30 150 32 l31 3 3 -101 c2 -74 -3 -127 -18 -195 -27 -126 -26 -143
20 -237 44 -93 62 -102 88 -45 14 32 17 81 20 314 l3 277 67 5 c37 4 118 9
180 13 80 5 118 11 128 22 55 55 -103 114 -212 79 -27 -9 -74 -17 -104 -19
l-55 -3 -7 235 c-5 129 -7 275 -5 325 l2 89 66 -79 c36 -44 179 -219 319 -390
139 -171 260 -316 268 -322 27 -22 446 -10 440 12 -2 5 -37 24 -78 41 -261
107 -403 211 -734 534 -180 177 -293 297 -285 304 8 8 370 36 574 46 176 8
212 12 222 26 23 31 4 47 -106 85 -65 23 -112 24 -151 4 -17 -9 -109 -22 -237
-35 -114 -11 -230 -23 -256 -26 l-49 -6 7 143 c6 120 12 153 32 199 28 64 24
94 -16 114 -36 19 -177 56 -210 56 l-26 -1 24 -17z"/>
</g>
</svg>
